# xmcd
#
# Track frame offsets:
#	182
#	13027
#	23127
#	32027
#	43822
#	54452
#	63555
#	78407
#	91140
#	99730
#	110557
#	119235
#	129580
#	142010
#	154825
#	169520
#
# Disc length: 2441 seconds
#
# Revision: 0
# Processed by: cddbd v1.5.2PL0 Copyright (c) Steve Scherf et al.
# Submitted via: audiograbber 1.83.01
#
DISCID=dd098710
DTITLE=The Golden Gate Quartett - Selection Of The Golden Gate Quartett [CD 2 /
DTITLE=2)
DYEAR=2000
DGENRE=Soul
TTITLE0=Preacher And The Bear (That Ol' Time Religion)
TTITLE1=When The Saints Go Marching Home
TTITLE2=Packing Up-Getting Ready To Go
TTITLE3=Noah
TTITLE4=If I Had My Way
TTITLE5=To The Rock
TTITLE6=Take Your Burdens To God
TTITLE7=Massa´s In The Cold, Cold Ground
TTITLE8=When They Ring Them Golden Bells
TTITLE9=Hide Me In Thy Bosom
TTITLE10=Bye And Bye Little Children
TTITLE11=God Almighty Said
TTITLE12=He Said He Would Calm The Ocean
TTITLE13=´Way Down In Egypt Land
TTITLE14=I´m A Pilgrim
TTITLE15=Cheer The Weary Traveler
EXTD=
EXTT0=
EXTT1=
EXTT2=
EXTT3=
EXTT4=
EXTT5=
EXTT6=
EXTT7=
EXTT8=
EXTT9=
EXTT10=
EXTT11=
EXTT12=
EXTT13=
EXTT14=
EXTT15=
PLAYORDER=
